<!-- Generated by thesis/tools/explainer_svg.py from pages/index.html.
     Figure: runs. Do not edit; edit the manifest or the page.
     Testing observes chosen runs; an analysis result is one region containing every run, tried or not. -->
<svg viewBox="0 0 820 300" role="img"
          aria-label="Left: four tested runs pass, while a run on an input nobody tried is never checked. Right: the analysis result is one region that contains every run, including the untested one, and it stays clear of the bad states." xmlns="http://www.w3.org/2000/svg">
<style>
  .panel-title { font-size: 16px !important; font-weight: 700; fill: #1565C0 !important; }
  .bad-zone { fill: url(#bad-hatch); stroke: #B3261E; }
  .hatch-line { stroke: #B3261E; stroke-opacity: 0.3; stroke-width: 3; }
  .bad-label { fill: #B3261E !important; font-size: 13px !important; font-weight: 700; }
  .run { fill: none; stroke: #1565C0; stroke-width: 2.5; stroke-linecap: round; }
  .run.untested { stroke: #78909C; stroke-dasharray: 6 6; }
  .run.faint { stroke-opacity: 0.45; stroke-width: 2; }
  .pass-marks circle { fill: #2E7D32; stroke: #FFFFFF; stroke-width: 2; }
  .untested-label { fill: #78909C !important; font-style: italic; }
  .envelope { fill: #1565C0; fill-opacity: 0.14; stroke: #1565C0; stroke-width: 2; }
  .envelope-label { fill: #1565C0 !important; font-weight: 700; }
  .gap-line { stroke: #2E7D32; stroke-width: 2; stroke-dasharray: 3 3; }
  .gap-label { fill: #2E7D32 !important; font-size: 12px !important; font-weight: 700; }
</style>
          <defs>
            <pattern id="bad-hatch" width="8" height="8" patternUnits="userSpaceOnUse"
              patternTransform="rotate(45)">
              <line x1="0" y1="0" x2="0" y2="8" class="hatch-line"/>
            </pattern>
          </defs>

          <g>
            <text class="panel-title" x="20" y="24">Testing</text>
            <rect class="bad-zone" x="20" y="40" width="350" height="30"/>
            <text class="bad-label" x="362" y="60" text-anchor="end">bad states</text>

            <path class="run tested" d="M20 200 C 90 184, 150 190, 215 163 S 320 146, 370 152"/>
            <path class="run tested" d="M20 200 C 80 206, 160 174, 225 181 S 320 192, 370 186"/>
            <path class="run tested" d="M20 200 C 110 158, 175 158, 240 139 S 330 126, 370 130"/>
            <path class="run tested" d="M20 200 C 95 214, 180 208, 245 212 S 330 205, 370 208"/>
            <path class="run untested" d="M20 200 C 75 184, 140 124, 215 116 S 320 106, 370 110"/>

            
            
            
            

            <g class="pass-marks">
              <circle cx="370" cy="152" r="7"/><circle cx="370" cy="186" r="7"/>
              <circle cx="370" cy="130" r="7"/><circle cx="370" cy="208" r="7"/>
            </g>
            <text class="untested-label" x="250" y="104">input nobody tried: ?</text>

            <line class="axis" x1="20" y1="240" x2="370" y2="240"/>
            <text class="axis-label" x="370" y="258" text-anchor="end">time →</text>
            
          </g>

          <g transform="translate(430 0)">
            <text class="panel-title" x="20" y="24">Abstract interpretation</text>
            <rect class="bad-zone" x="20" y="40" width="350" height="30"/>
            <text class="bad-label" x="362" y="60" text-anchor="end">bad states</text>

            <path class="envelope" d="M20 190 C 90 146, 160 108, 240 100 L370 96 L370 222 L245 222 L20 210 Z"/>
            <path class="run faint" d="M20 200 C 90 184, 150 190, 215 163 S 320 146, 370 152"/>
            <path class="run faint" d="M20 200 C 80 206, 160 174, 225 181 S 320 192, 370 186"/>
            <path class="run faint" d="M20 200 C 110 158, 175 158, 240 139 S 330 126, 370 130"/>
            <path class="run faint" d="M20 200 C 95 214, 180 208, 245 212 S 330 205, 370 208"/>
            <path class="run faint" d="M20 200 C 75 184, 140 124, 215 116 S 320 106, 370 110"/>
            

            <text class="envelope-label" x="300" y="200" text-anchor="middle">analysis result</text>
            <line class="gap-line" x1="330" y1="72" x2="330" y2="94"/>
            <text class="gap-label" x="322" y="88" text-anchor="end">never touches the bad states</text>

            <line class="axis" x1="20" y1="240" x2="370" y2="240"/>
            <text class="axis-label" x="370" y="258" text-anchor="end">time →</text>
            
          </g>
        </svg>